<?xml version="1.0" encoding="UTF-8" standalone="no"?>
<svg
   xmlns:dc="http://purl.org/dc/elements/1.1/"
   xmlns:cc="http://creativecommons.org/ns#"
   xmlns:rdf="http://www.w3.org/1999/02/22-rdf-syntax-ns#"
   xmlns:svg="http://www.w3.org/2000/svg"
   xmlns="http://www.w3.org/2000/svg"
   xmlns:sodipodi="http://sodipodi.sourceforge.net/DTD/sodipodi-0.dtd"
   xmlns:inkscape="http://www.inkscape.org/namespaces/inkscape"
   enable-background="new 0 0 64 64"
   viewBox="0 0 64 64"
   version="1.1"
   id="svg4"
   sodipodi:docname="twitter.svg"
   inkscape:version="1.0 (4035a4fb49, 2020-05-01)">
  <metadata
     id="metadata10">
    <rdf:RDF>
      <cc:Work
         rdf:about="">
        <dc:format>image/svg+xml</dc:format>
        <dc:type
           rdf:resource="http://purl.org/dc/dcmitype/StillImage" />
      </cc:Work>
    </rdf:RDF>
  </metadata>
  <defs
     id="defs8" />
  <sodipodi:namedview
     inkscape:document-rotation="0"
     pagecolor="#ffffff"
     bordercolor="#666666"
     borderopacity="1"
     objecttolerance="10"
     gridtolerance="10"
     guidetolerance="10"
     inkscape:pageopacity="0"
     inkscape:pageshadow="2"
     inkscape:window-width="1816"
     inkscape:window-height="1008"
     id="namedview6"
     showgrid="false"
     inkscape:zoom="13.28125"
     inkscape:cx="32"
     inkscape:cy="32"
     inkscape:window-x="0"
     inkscape:window-y="0"
     inkscape:window-maximized="0"
     inkscape:current-layer="svg4" />
  <path
     d="m 62.468,16.868 c 0,0 0.86,-1.473 0.957,-2.328 0.096,-0.855 0.096,-1.853 -0.335,-2.233 -0.431,-0.38 -2.153,0.238 -3.54,0.665 -1.387,0.428 -4.162,0.855 -4.162,0.855 0,0 -1.722,-5.083 -4.497,-7.08 -2.774,-1.994 -6.458,-2.042 -9.567,-1.33 -3.11,0.714 -6.937,2.71 -8.707,4.8 -1.77,2.09 -3.3,6.27 -3.827,7.933 -0.527,1.663 -1.58,4.56 -2.776,4.798 -1.196,0.238 -3.445,-0.618 -5.358,-1.805 -1.914,-1.188 -6.89,-5.226 -9.377,-7.506 C 8.792,11.357 5.25,7.414 4.1,7.652 2.953,7.89 1.613,12.022 1.613,14.968 c 0,2.946 2.63,5.796 2.63,5.796 -1.052,3.848 -0.43,6.556 0.575,8.55 1.005,1.994 3.205,3.327 3.205,3.327 -0.287,1.33 -0.144,2.947 0.335,4.372 0.478,1.425 2.966,3.23 2.966,3.23 0,0 -1.483,1.19 -3.827,1.854 -2.344,0.665 -6.793,-0.048 -7.272,0.048 -0.478,0.095 -0.048,6.033 -0.048,6.89 0,0.854 0.622,1.52 1.387,2.09 0.765,0.57 6.937,3.657 15.596,5.89 8.66,2.233 15.453,0.285 20.62,-1.948 5.167,-2.233 10.717,-9.074 14.305,-14.585 3.588,-5.51 5.98,-13.444 5.98,-13.444 0,0 1.34,-0.713 3.253,-2.138 1.914,-1.425 2.63,-3.848 2.68,-5.32 0.05,-1.475 -1.53,-2.71 -1.53,-2.71 z m -4.306,3.183 c 0.574,0 3.014,-1.377 3.3,-1.14 0.288,0.24 -0.717,2.09 -2.487,3.137 -1.77,1.045 -3.11,1.568 -3.445,1.473 -0.335,-0.095 -1.555,-2.47 -1.77,-2.435 -0.215,0.036 -0.79,0.5 -0.646,0.82 0.144,0.32 1.543,2.173 1.4,2.46 -0.145,0.284 -0.216,0.427 -0.432,0.248 -0.215,-0.178 -1.543,-2.993 -1.902,-3.064 -0.36,-0.072 -0.86,0.712 -0.646,1.068 0.215,0.356 1.973,2.637 1.938,2.993 -0.036,0.357 -0.43,1.996 -0.574,1.747 -0.144,-0.25 -2.332,-4.276 -2.548,-4.24 -0.215,0.036 -0.718,0.962 -0.61,1.247 0.108,0.285 2.655,3.99 2.655,4.31 0,0.322 -0.753,1.925 -1.005,1.64 -0.25,-0.285 -2.476,-5.024 -2.69,-5.024 -0.216,0 -0.826,0.784 -0.79,0.998 0.036,0.214 2.87,4.953 2.942,5.31 0.072,0.355 -0.61,2.386 -0.86,2.244 -0.252,-0.143 -2.55,-5.88 -2.836,-5.915 -0.287,-0.036 -0.718,0.82 -0.61,1.176 0.108,0.356 2.8,5.452 2.835,5.88 0.037,0.427 -0.43,1.175 -0.573,1.068 -0.144,-0.106 -3.05,-7.268 -3.3,-7.232 -0.252,0.036 -0.683,0.748 -0.432,1.568 0.25,0.82 3.193,6.164 3.23,6.592 0.035,0.428 -0.72,1.425 -0.826,1.247 -0.11,-0.178 -3.194,-6.984 -3.48,-6.912 -0.288,0.07 -0.683,1.14 -0.432,1.568 0.25,0.43 3.41,5.95 3.41,6.13 0,0.18 -0.826,1.46 -1.042,1.354 -0.215,-0.107 -2.87,-6.414 -3.158,-6.378 -0.287,0.036 -0.825,0.677 -0.502,1.39 0.323,0.713 3.122,5.452 3.014,5.772 -0.108,0.32 -0.86,1.39 -1.005,1.14 -0.145,-0.25 -2.978,-6.7 -3.3,-6.7 -0.322,0 -1.113,0.714 -0.826,1.284 0.286,0.57 3.48,6.2 3.336,6.342 -0.144,0.143 -1.256,1.603 -1.435,1.497 -0.178,-0.106 -3.228,-6.626 -3.55,-6.52 -0.324,0.108 -0.79,0.607 -0.54,1.07 0.252,0.463 3.41,5.986 3.338,6.164 -0.072,0.178 -0.86,0.89 -1.076,0.64 -0.215,-0.248 -3.158,-6.092 -3.48,-6.092 -0.324,0 -1.006,0.926 -0.79,1.283 0.215,0.356 3.66,5.665 3.516,5.915 -0.144,0.25 -1.22,1.176 -1.363,0.998 -0.144,-0.178 -2.8,-5.558 -3.337,-5.523 -0.538,0.036 -0.933,0.855 -0.682,1.14 0.25,0.285 2.942,4.81 2.942,4.81 0,0 -1.292,0.784 -1.507,0.534 -0.214,-0.25 -2.403,-5.203 -2.618,-5.203 -0.215,0 -1.148,0.57 -0.754,1.14 0.395,0.57 2.583,4.347 2.368,4.525 -0.215,0.178 -0.897,0.5 -1.112,0.25 -0.215,-0.25 -2.44,-5.203 -2.655,-5.203 -0.215,0 -1.077,0.355 -0.862,0.712 0.215,0.356 2.512,4.988 2.404,5.06 -0.108,0.07 -1.543,0.5 -1.722,0.32 -0.18,-0.177 -2.117,-4.31 -2.44,-4.31 -0.323,0 -0.646,0.5 -0.574,0.748 0.072,0.25 2.117,3.813 2.01,3.884 -0.11,0.07 -1.508,0.285 -1.652,0.178 -0.144,-0.107 -1.973,-4.383 -2.26,-4.454 -0.288,-0.07 -0.934,0.5 -0.79,0.89 0.144,0.393 1.794,3.564 1.615,3.635 -0.18,0.07 -1.4,0.143 -1.58,-0.107 -0.18,-0.25 -1.65,-3.706 -1.973,-3.777 -0.323,-0.072 -0.897,0.106 -0.682,0.64 0.215,0.534 1.902,3.563 1.65,3.563 -0.252,0 -1.614,0 -1.757,-0.107 -0.144,-0.107 -1.615,-3.634 -1.866,-3.706 -0.25,-0.07 -1.076,-0.143 -0.933,0.32 0.143,0.464 1.72,3.172 1.434,3.172 -0.286,0 -1.758,-0.285 -2.01,-0.534 -0.25,-0.25 -1.578,-3.492 -1.865,-3.527 -0.288,-0.035 -0.898,0.286 -0.826,0.714 0.072,0.428 1.364,2.744 1.04,2.672 -0.322,-0.07 -1.793,-0.32 -1.83,-0.5 -0.035,-0.177 -1.47,-3.17 -1.72,-3.313 -0.25,-0.143 -1.113,0.036 -0.898,0.428 0.215,0.393 1.148,2.388 1.005,2.388 -0.143,0 -3.515,-0.998 -6.314,-2.423 C 4.565,45.783 2.054,43.574 2.376,43.502 2.698,43.43 6.323,43.715 8.799,42.788 11.276,41.862 13.752,40.9 13.895,40.614 14.039,40.329 13.608,39.688 13.5,39.652 13.393,39.616 10.38,38.69 9.733,36.516 9.087,34.343 9.589,31.991 9.195,31.706 8.8,31.421 6.791,30.566 5.785,27.466 c -1.006,-3.1 0.11,-7.304 -0.107,-7.59 -0.215,-0.284 -0.562,-0.866 -0.91,-0.77 -0.36,0.098 -1.53,-2.33 -1.578,-4.61 -0.048,-2.28 0.957,-5.32 1.196,-5.32 0.24,0 6.65,6.176 10.047,9.027 3.397,2.851 7.368,5.797 9.712,6.177 2.344,0.38 3.3,0.475 4.4,-1.758 1.1,-2.234 2.297,-7.697 3.972,-10.215 1.674,-2.518 5.12,-5.368 9.568,-6.08 4.448,-0.712 7.798,0.522 9.568,2.992 1.77,2.47 1.866,5.7 2.296,5.986 0.43,0.285 2.343,0.19 4.64,-0.618 2.296,-0.808 3.11,-0.998 3.253,-0.998 0.144,0 -0.526,1.473 -2.01,2.708 -1.482,1.235 -2.535,2.09 -2.535,2.66 0,0.57 0.29,0.996 0.864,0.996 z M 6.11,15.883 C 5.428,15.349 5.715,14.066 5.895,13.139 c 0.18,-0.926 -1.292,-0.713 -1.543,0.32 -0.25,1.034 0.036,2.46 0.86,3.172 0.826,0.713 1.6,0.67 1.83,0.5 C 7.33,16.917 6.792,16.418 6.11,15.883 Z m 20.13,10.155 c -0.538,-0.07 -1.866,0.64 -3.265,-0.07 -1.4,-0.714 -2.763,-2.388 -3.373,-2.174 -0.428,0.15 -0.86,0.713 0.18,1.675 1.04,0.962 2.977,1.782 4.556,1.782 1.579,0 2.44,-1.14 1.902,-1.213 z m 9.83,-12.577 c -0.358,-0.107 -1.865,0.89 -2.582,2.138 -0.718,1.247 -1.794,3.634 -0.97,4.098 0.554,0.31 0.826,-0.07 1.257,-1.425 0.43,-1.353 1.256,-2.92 1.722,-3.49 0.467,-0.572 0.933,-1.214 0.574,-1.32 z"
     id="path2"
     style="mix-blend-mode:normal;fill:#4a4a4a;fill-opacity:1" />
</svg>
