<?xml version="1.0" encoding="UTF-8" standalone="no"?>
<svg
   xmlns:dc="http://purl.org/dc/elements/1.1/"
   xmlns:cc="http://creativecommons.org/ns#"
   xmlns:rdf="http://www.w3.org/1999/02/22-rdf-syntax-ns#"
   xmlns:svg="http://www.w3.org/2000/svg"
   xmlns="http://www.w3.org/2000/svg"
   id="svg8"
   version="1.1"
   viewBox="0 0 35.324696 17.700377"
   height="17.700377mm"
   width="35.324696mm">
  <defs
     id="defs2" />
  <metadata
     id="metadata5">
    <rdf:RDF>
      <cc:Work
         rdf:about="">
        <dc:format>image/svg+xml</dc:format>
        <dc:type
           rdf:resource="http://purl.org/dc/dcmitype/StillImage" />
        <dc:title></dc:title>
      </cc:Work>
    </rdf:RDF>
  </metadata>
  <g
     transform="translate(-27.220117,-81.794068)"
     id="layer1">
    <g
       style="font-style:normal;font-weight:normal;font-size:10.5833px;line-height:0.95;font-family:sans-serif;fill:#545454;fill-opacity:1;stroke:none;stroke-width:0.264583"
       id="text12"
       aria-label="Devon
Stories">
      <path
         id="path845"
         style="font-style:normal;font-variant:normal;font-weight:normal;font-stretch:normal;font-family:'MADE Sunflower';-inkscape-font-specification:'MADE Sunflower';fill:#355454;fill-opacity:1;stroke-width:0.264583"
         d="m 30.69619,81.794068 q 2.21191,0 3.386656,1.005413 1.18533,1.005414 1.18533,2.698741 0,1.693328 -1.18533,2.698742 -1.174746,1.005413 -3.386656,1.005413 h -3.270239 v -0.285749 q 0.99483,0 0.99483,-1.217079 v -4.39207 q 0,-1.217079 -0.99483,-1.217079 v -0.296332 z m -0.04233,6.995561 q 2.741075,0 2.741075,-3.291407 0,-3.280822 -2.741075,-3.280822 h -0.444498 v 6.572229 z" />
      <path
         id="path847"
         style="font-style:normal;font-variant:normal;font-weight:normal;font-stretch:normal;font-family:'MADE Sunflower';-inkscape-font-specification:'MADE Sunflower';fill:#355454;fill-opacity:1;stroke-width:0.264583"
         d="m 40.705677,87.540799 q 0.179916,0.137583 0.179916,0.148166 -0.296332,0.687915 -0.910164,1.15358 -0.603248,0.455082 -1.502828,0.455082 -1.164163,0 -1.926161,-0.656165 -0.751414,-0.656164 -0.836081,-1.640411 -0.105833,-1.238246 0.687915,-1.968494 0.793747,-0.730247 2.031993,-0.730247 1.09008,0 1.725078,0.571498 0.634998,0.560915 0.592665,1.587495 l -3.27024,0.550331 q 0.116417,0.656165 0.719665,0.963081 0.613831,0.306915 1.333496,0.190499 0.719664,-0.127 1.174746,-0.624415 z m -2.465909,-2.857491 q -0.486832,0.04233 -0.709081,0.592665 -0.211666,0.539748 -0.116416,1.322913 l 1.735661,-0.296333 q 0.04233,-0.804331 -0.179916,-1.227663 -0.211666,-0.433915 -0.730248,-0.391582 z" />
      <path
         id="path849"
         style="font-style:normal;font-variant:normal;font-weight:normal;font-stretch:normal;font-family:'MADE Sunflower';-inkscape-font-specification:'MADE Sunflower';fill:#355454;fill-opacity:1;stroke-width:0.264583"
         d="m 44.697566,84.408143 h 1.86266 v 0.285749 q -0.370415,0 -0.582081,0.169332 -0.201083,0.169333 -0.338666,0.518582 l -1.534578,3.820571 H 43.39582 l -1.725078,-3.820571 q -0.127,-0.264582 -0.211666,-0.380999 -0.07408,-0.116416 -0.243416,-0.211666 -0.169333,-0.09525 -0.423332,-0.09525 v -0.285749 h 3.100907 v 0.285749 q -0.359832,0 -0.465665,0.148166 -0.09525,0.148166 0.04233,0.539748 l 0.920747,2.158993 0.86783,-2.158993 q 0.148167,-0.433915 0.02117,-0.560915 -0.127,-0.126999 -0.582081,-0.126999 z" />
      <path
         id="path851"
         style="font-style:normal;font-variant:normal;font-weight:normal;font-stretch:normal;font-family:'MADE Sunflower';-inkscape-font-specification:'MADE Sunflower';fill:#355454;fill-opacity:1;stroke-width:0.264583"
         d="m 49.106833,84.30231 q 1.195913,0 1.968494,0.698497 0.772581,0.687915 0.772581,1.799161 0,1.111247 -0.772581,1.809745 -0.772581,0.687914 -1.968494,0.687914 -1.206496,0 -1.979077,-0.687914 -0.772581,-0.698498 -0.772581,-1.809745 0,-1.111246 0.772581,-1.799161 0.772581,-0.698497 1.979077,-0.698497 z m 0.359832,4.582568 q 0.476249,-0.08467 0.645581,-0.698497 0.169333,-0.613832 0,-1.566329 -0.169332,-0.96308 -0.539748,-1.471078 -0.359832,-0.518582 -0.836081,-0.433916 -0.476248,0.08467 -0.645581,0.698498 -0.158749,0.613831 0.01058,1.566328 0.169333,0.952497 0.529165,1.471079 0.359833,0.507998 0.836081,0.433915 z" />
      <path
         id="path853"
         style="font-style:normal;font-variant:normal;font-weight:normal;font-stretch:normal;font-family:'MADE Sunflower';-inkscape-font-specification:'MADE Sunflower';fill:#355454;fill-opacity:1;stroke-width:0.264583"
         d="m 58.497362,87.699549 q 0.03175,0.264582 0.05292,0.380999 0.02117,0.105833 0.08467,0.306915 0.0635,0.201083 0.148166,0.296333 0.09525,0.08467 0.264582,0.158749 0.169333,0.07408 0.402166,0.07408 v 0.285749 h -3.39724 v -0.285749 q 0.380999,0 0.560915,-0.169333 0.1905,-0.179916 0.201083,-0.444498 0.01058,-0.275166 -0.02117,-0.603248 -0.148166,-0.96308 -0.211666,-1.354663 -0.04233,-0.264582 -0.0635,-0.370415 -0.02117,-0.116416 -0.08467,-0.306916 -0.0635,-0.201082 -0.148166,-0.285749 -0.08467,-0.08467 -0.243416,-0.158749 -0.148166,-0.07408 -0.359832,-0.07408 -0.455082,0 -0.677331,0.349248 -0.22225,0.349249 -0.22225,0.920748 v 1.280579 q 0,0.603248 0.15875,0.910164 0.158749,0.306915 0.709081,0.306915 v 0.285749 h -3.481906 v -0.285749 q 0.550332,0 0.730248,-0.306915 0.179916,-0.317499 0.179916,-0.910164 v -1.068913 q 0,-0.592665 -0.179916,-0.899581 -0.179916,-0.317499 -0.730248,-0.317499 v -0.285749 q 0.518582,0 1.195913,-0.211666 0.687915,-0.222249 1.132413,-0.613831 h 0.285749 v 0.825497 q 0.592665,-0.825497 1.682745,-0.825497 0.804331,0 1.248829,0.455081 0.444499,0.455082 0.582082,1.449913 z" />
      <path
         id="path855"
         style="font-style:normal;font-variant:normal;font-weight:normal;font-stretch:normal;font-family:'MADE Sunflower';-inkscape-font-specification:'MADE Sunflower';fill:#545454;fill-opacity:1;stroke-width:0.264583"
         d="m 31.362938,94.977689 q 0.973664,0.529165 1.291163,0.783165 0.86783,0.719664 0.687914,1.79916 -0.105833,0.677332 -0.634998,1.142997 -0.518581,0.455082 -1.206496,0.634998 -0.677331,0.179916 -1.396995,0.137583 -1.068914,-0.0635 -1.883828,-0.497415 -0.814914,-0.444499 -0.96308,-1.15358 -0.137583,-0.677331 0.243416,-1.111247 0.380999,-0.433915 0.984247,-0.380998 0.497415,0.05292 0.804331,0.380998 0.317499,0.317499 0.317499,0.656165 -0.391582,-0.03175 -0.656165,0.211666 -0.253999,0.232833 -0.158749,0.719664 0.137582,0.719665 1.354662,0.793748 0.687914,0.04233 1.12183,-0.243416 0.444498,-0.285749 0.529165,-0.730248 0.05292,-0.306915 -0.01058,-0.539748 -0.05292,-0.232833 -0.349249,-0.465665 -0.296332,-0.232833 -0.476248,-0.328082 -0.169333,-0.105833 -0.730248,-0.391583 -0.105833,-0.05292 -0.158749,-0.08467 -1.079497,-0.571498 -1.439329,-0.846664 -0.920747,-0.719664 -0.867831,-1.714494 0.03175,-0.592665 0.317499,-0.994831 0.28575,-0.402165 0.719665,-0.582081 0.444498,-0.179916 0.878414,-0.243416 0.433915,-0.0635 0.888997,-0.03175 0.306916,0.02117 0.603248,0.09525 0.296332,0.0635 0.455082,0.116416 0.158749,0.04233 0.296332,0.0635 0.148166,0.01058 0.22225,-0.05292 0.07408,-0.0635 0.116416,-0.243415 h 0.211666 l 0.169333,2.381242 h -0.328083 q -0.222249,-0.984247 -0.613831,-1.439329 -0.391582,-0.465665 -1.132413,-0.539748 -0.518582,-0.05292 -0.920747,0.190499 -0.391582,0.243416 -0.412749,0.698498 -0.01058,0.243416 0.105833,0.465665 0.127,0.22225 0.391582,0.423332 0.275166,0.1905 0.497415,0.328083 0.232833,0.126999 0.603248,0.317499 0.380999,0.190499 0.529165,0.275165 z" />
      <path
         id="path857"
         style="font-style:normal;font-variant:normal;font-weight:normal;font-stretch:normal;font-family:'MADE Sunflower';-inkscape-font-specification:'MADE Sunflower';fill:#545454;fill-opacity:1;stroke-width:0.264583"
         d="m 36.900815,98.216179 0.201083,0.105833 q -0.486832,1.164163 -1.471079,1.164163 -0.666748,0 -1.100663,-0.433915 -0.433915,-0.444499 -0.433915,-1.259413 v -2.783408 h -0.825498 v -0.412748 q 0.825498,-0.04233 1.439329,-0.497416 0.613831,-0.465665 0.772581,-1.291162 h 0.328082 v 1.788578 h 1.12183 v 0.412748 h -1.12183 v 2.868074 q 0,0.349249 0.105833,0.497416 0.116417,0.148166 0.328083,0.190499 0.412748,0.0635 0.656164,-0.349249 z" />
      <path
         id="path859"
         style="font-style:normal;font-variant:normal;font-weight:normal;font-stretch:normal;font-family:'MADE Sunflower';-inkscape-font-specification:'MADE Sunflower';fill:#545454;fill-opacity:1;stroke-width:0.264583"
         d="m 39.949797,94.490858 q 1.195913,0 1.968494,0.698497 0.772581,0.687915 0.772581,1.799161 0,1.111247 -0.772581,1.809745 -0.772581,0.687914 -1.968494,0.687914 -1.206496,0 -1.979077,-0.687914 -0.772581,-0.698498 -0.772581,-1.809745 0,-1.111246 0.772581,-1.799161 0.772581,-0.698497 1.979077,-0.698497 z m 0.359832,4.582568 q 0.476249,-0.08467 0.645582,-0.698497 0.169332,-0.613832 0,-1.566329 -0.169333,-0.96308 -0.539749,-1.471078 -0.359832,-0.518582 -0.83608,-0.433916 -0.476249,0.08467 -0.645582,0.698498 -0.158749,0.613831 0.01058,1.566328 0.169332,0.952497 0.529165,1.471079 0.359832,0.507998 0.83608,0.433915 z" />
      <path
         id="path861"
         style="font-style:normal;font-variant:normal;font-weight:normal;font-stretch:normal;font-family:'MADE Sunflower';-inkscape-font-specification:'MADE Sunflower';fill:#545454;fill-opacity:1;stroke-width:0.264583"
         d="m 47.265999,94.490858 q 0.550332,0.09525 0.772581,0.529165 0.232833,0.423332 0.05292,0.89958 -0.169332,0.423332 -0.560914,0.560915 -0.380999,0.137583 -0.687915,0.02117 0.222249,-0.783164 -0.306916,-0.96308 -0.359832,-0.105833 -0.613831,0.0635 -0.253999,0.169333 -0.285749,0.529165 v 1.756828 q 0,0.603248 0.158749,0.910164 0.15875,0.306915 0.709082,0.306915 v 0.285749 h -3.492489 v -0.285749 q 0.560915,0 0.730247,-0.306915 0.179916,-0.317499 0.179916,-0.910164 v -1.068914 q 0,-0.592664 -0.179916,-0.89958 -0.169332,-0.317499 -0.730247,-0.317499 v -0.285749 q 0.529165,0 1.206496,-0.211666 0.687914,-0.222249 1.132413,-0.613831 h 0.285749 v 0.952497 q 0.592665,-1.12183 1.629828,-0.952497 z" />
      <path
         id="path863"
         style="font-style:normal;font-variant:normal;font-weight:normal;font-stretch:normal;font-family:'MADE Sunflower';-inkscape-font-specification:'MADE Sunflower';fill:#545454;fill-opacity:1;stroke-width:0.264583"
         d="m 51.206625,97.888097 q 0,0.296332 0.02117,0.486832 0.03175,0.179916 0.105833,0.370415 0.08467,0.179916 0.264582,0.275166 0.1905,0.08467 0.486832,0.08467 v 0.285749 H 48.59255 v -0.285749 q 0.550332,0 0.730248,-0.306915 0.179916,-0.317499 0.179916,-0.910164 v -1.068914 q 0,-0.592664 -0.179916,-0.89958 -0.179916,-0.317499 -0.730248,-0.317499 v -0.285749 q 0.529165,0 1.206496,-0.211666 0.687915,-0.222249 1.12183,-0.613831 h 0.285749 z M 50.920876,93.69711 q -0.306916,0.296332 -0.740831,0.296332 -0.433915,0 -0.751414,-0.296332 -0.306916,-0.296332 -0.306916,-0.709081 0,-0.412749 0.306916,-0.709081 0.317499,-0.296332 0.751414,-0.296332 0.433915,0 0.740831,0.296332 0.317499,0.296332 0.317499,0.709081 0,0.412749 -0.317499,0.709081 z" />
      <path
         id="path865"
         style="font-style:normal;font-variant:normal;font-weight:normal;font-stretch:normal;font-family:'MADE Sunflower';-inkscape-font-specification:'MADE Sunflower';fill:#545454;fill-opacity:1;stroke-width:0.264583"
         d="m 57.200742,97.729347 q 0.179916,0.137583 0.179916,0.148166 -0.296333,0.687915 -0.910164,1.15358 -0.603248,0.455082 -1.502829,0.455082 -1.164163,0 -1.92616,-0.656165 -0.751414,-0.656164 -0.836081,-1.640411 -0.105833,-1.238246 0.687915,-1.968494 0.793747,-0.730247 2.031993,-0.730247 1.09008,0 1.725078,0.571498 0.634998,0.560915 0.592665,1.587495 l -3.27024,0.550331 q 0.116416,0.656165 0.719665,0.963081 0.613831,0.306915 1.333495,0.190499 0.719665,-0.127 1.174747,-0.624415 z m -2.465909,-2.857491 q -0.486832,0.04233 -0.709081,0.592665 -0.211666,0.539748 -0.116417,1.322913 l 1.735661,-0.296333 Q 55.68733,95.68677 55.46508,95.263438 55.253414,94.829523 54.734833,94.871856 Z" />
      <path
         id="path867"
         style="font-style:normal;font-variant:normal;font-weight:normal;font-stretch:normal;font-family:'MADE Sunflower';-inkscape-font-specification:'MADE Sunflower';fill:#545454;fill-opacity:1;stroke-width:0.264583"
         d="m 60.639818,96.131269 q 0.148166,0.07408 0.232833,0.127 0.08467,0.05292 0.232832,0.126999 0.148167,0.07408 0.243416,0.127 0.09525,0.05292 0.243416,0.137583 0.148166,0.08467 0.243416,0.148166 0.09525,0.0635 0.222249,0.169333 0.127,0.105833 0.1905,0.201082 0.0635,0.08467 0.148166,0.22225 0.09525,0.126999 0.105833,0.253999 0.01058,0.116416 0.03175,0.285749 0.03175,0.158749 -0.03175,0.328082 -0.148166,0.709081 -0.920747,0.99483 -0.761998,0.285749 -1.714495,0.232833 -0.761997,-0.03175 -1.439328,-0.317499 -0.677332,-0.285749 -0.793748,-0.772581 -0.116416,-0.486832 0.179916,-0.846664 0.306916,-0.370415 0.793748,-0.296332 0.380998,0.05292 0.571498,0.296332 0.190499,0.243416 0.201083,0.592665 -0.232833,-0.02117 -0.370416,0.137583 -0.127,0.148166 -0.08467,0.380999 0.08467,0.380998 0.973663,0.444498 0.433916,0.02117 0.730248,-0.116416 0.306916,-0.148166 0.338665,-0.402165 0.02117,-0.179917 -0.03175,-0.317499 -0.04233,-0.137583 -0.179916,-0.243416 -0.137583,-0.116417 -0.28575,-0.201083 -0.148166,-0.09525 -0.412748,-0.222249 -0.15875,-0.07408 -0.232833,-0.116417 -0.380999,-0.201082 -0.571498,-0.306915 -0.190499,-0.116417 -0.486832,-0.349249 -0.285749,-0.243416 -0.402165,-0.529165 -0.116417,-0.296333 -0.07408,-0.656165 0.0635,-0.486832 0.402165,-0.772581 0.338666,-0.285749 0.761998,-0.359832 0.433915,-0.07408 0.941913,-0.02117 0.179916,0.02117 0.349249,0.07408 0.169333,0.04233 0.253999,0.08467 0.08467,0.03175 0.15875,0.04233 0.07408,0.01058 0.105833,-0.03175 0.04233,-0.05292 0.07408,-0.169332 h 0.179916 l 0.105833,1.640411 h -0.253999 q -0.137583,-0.645581 -0.349249,-0.920747 -0.211666,-0.285749 -0.624415,-0.328082 -0.613831,-0.08467 -0.666748,0.370415 -0.01058,0.0635 0,0.127 0.01058,0.0635 0.04233,0.126999 0.03175,0.05292 0.0635,0.105833 0.03175,0.04233 0.105833,0.105833 0.08467,0.05292 0.137583,0.09525 0.05292,0.03175 0.15875,0.09525 0.116416,0.0635 0.190499,0.105833 0.07408,0.04233 0.211666,0.116416 z" />
    </g>
    <text
       id="text843"
       y="89.202377"
       x="147.03275"
       style="font-style:normal;font-weight:normal;font-size:10.5833px;line-height:1.25;font-family:sans-serif;fill:#000000;fill-opacity:1;stroke:none;stroke-width:0.264583"
       xml:space="preserve"><tspan
         style="stroke-width:0.264583"
         y="89.202377"
         x="147.03275"
         id="tspan841" /></text>
  </g>
</svg>
