<svg version="1" xmlns="http://www.w3.org/2000/svg" width="2880" height="2880" viewBox="0 0 2160.000000 2160.000000"><path d="M703 .7C597.5 5.4 501.3 30.1 406.5 76.5c-143.6 70.3-264.9 193.1-334 338-40.2 84.3-63 170.1-70.7 266-1.9 23.4-1.9 775.6 0 799 6.8 85.5 25.2 160.9 58 238 61 143.6 171.1 267 308.2 345.5 95.3 54.5 200.7 86.5 313.5 95.2 25 1.9 772 1.9 797 0 98.2-7.5 188.1-32 275-74.7 100.7-49.6 191.5-125.2 260.7-217 76.2-101.3 126.1-226.7 140.7-353.5 4.8-41.6 4.6-26.7 4.6-433 0-405.6.1-392.2-4.6-433-16-138.1-72.6-271.6-160.4-378.5-30-36.6-71.2-77.4-108-107.1C1782 77.1 1649.1 21.1 1516 5.4c-42.9-5-17.2-4.7-426-4.9C880.7.4 706.6.5 703 .7zm781.5 53.6c23.2 2.2 39.2 4.3 56.9 7.3C1650.9 80 1757.7 127 1844.9 195c44.3 34.5 88.6 79.2 122.7 123.5 74.3 96.6 121.8 214.2 135.8 336 4.2 35.9 4.1 28.5 4.1 425.5 0 403.5.2 389.3-4.6 429.5-13.9 118.8-62.1 237-135.3 332-34.8 45.3-81 91.5-126.1 126.1-94.6 72.7-210.4 120.3-328.5 134.8-42.6 5.3-24.2 5.1-433 5.1-403.5 0-389.8.1-429.5-4.6-119.7-14.3-236.5-61.8-332-135.3-45.2-34.7-91.2-80.7-126.1-126.1-73.4-95.2-121.3-212.9-135.3-332-4.8-40.2-4.6-26-4.6-429.5s-.2-389.3 4.6-429.5c11.4-97.1 45.2-193.2 98-278.3 53.8-86.6 131.1-163.7 218.5-217.9C473.3 92.4 587 57.6 705.5 52.7c3.9-.2 176.9-.3 384.5-.2 343.4.1 379 .3 394.5 1.8z"/><path d="M1709 584.2c-4.3 14.3-9.4 22-17.2 26.4-5.1 2.8-5.7 2.9-18.3 2.8-14.2-.1-23.3-1.7-44.3-7.8-30.2-8.8-74.1-18.8-96.2-22-27.2-4-42.4-4.9-75.5-5-36.4 0-50.1 1.1-82.5 6.5-30.6 5.1-58.7 12.6-89.2 24-36.5 13.6-56.5 25.8-80.2 48.8-13.1 12.8-23.5 25.3-31.9 38.2-5.3 8.1-14.4 25.6-18 34.7l-1.8 4.4-9.7-8.9c-78.5-71.9-187.8-116.1-324.2-131.2-51.3-5.7-36.8-5.5-295.7-5.8l-239.3-.4v36.8l12.8 1.1c33.2 3 54.1 11.2 73.3 28.9 20.7 19.2 33.1 48.1 39.1 91.3 1.6 11.8 2.4 584.2.8 611-1.3 21.6-2.9 33.2-7.1 49-13.3 50.3-43.6 78.6-92.4 86.5-4.9.8-11.9 1.5-15.5 1.5-11.9 0-11-1.5-11 19.2v17.9l235.3-.4c246.2-.4 242.9-.3 286.2-4.7 114.3-11.4 207.8-41.2 282-89.7 7.2-4.7 16.1-10.8 19.8-13.5l6.8-5 13.2 12.9c21.4 20.9 44.8 37.2 76.9 53.8 75.6 39 167.7 59.7 265.3 59.9 42.7 0 70.7-2.7 112-10.9 43.4-8.7 73.4-18.8 108.5-36.6 42.6-21.5 83.8-53.8 109-85.4 34.3-43.2 52-96.9 52-158.4 0-37-7.3-68-23.6-100.3-20.5-40.3-52.9-74.4-99.9-105-26.1-17-61.2-37.6-112-65.8-13.2-7.4-27.6-15.3-31.9-17.8-4.4-2.4-26.7-14-49.7-25.7-71-36.4-92.7-48.8-128.9-74-27.6-19.2-39.9-29.5-51.9-44.1-25.6-30.9-33.9-65.1-25.1-102.9 4.3-18.6 12.7-33.4 26.9-47.5 31.9-31.8 82.2-47.8 135.1-43.1 57.9 5.2 102.7 23.6 135.9 55.6 18.8 18.2 32.3 37.2 46.5 65.5 15.9 31.9 27.6 64.8 39.1 110l5.2 20.5 20.6.3 20.7.2v-3.7c0-2.1-4.7-70.2-10.5-151.3-5.8-81.1-10.5-147.6-10.5-147.7 0-.2-6-.3-13.4-.3h-13.4l-2.2 7.2zM722.5 643c60.2 3.3 105.2 14.1 148.5 35.6 28.6 14.3 47.3 27.7 69.6 49.9 16.2 16.1 24.3 25.9 35.9 43.5 46.3 69.9 68.5 163.3 68.5 288.6 0 152.7-34.2 262.4-103.5 331.9-47.1 47.3-108.8 74.7-189 84-17.2 2-63.5 3.7-91 3.3l-22-.3-.3-417.5c-.1-229.6 0-418.1.3-418.8.6-1.5 54.8-1.7 83-.2zm576.3 424.3c41.9 25.5 100.4 57.8 167.7 92.5 45.3 23.3 74.2 38.7 85.1 45.5 24.4 15.1 56.2 39.4 71.4 54.7 24.4 24.3 31.5 42 31.4 78-.1 28.4-3.9 46.3-14.4 67.5-7.3 14.9-15.8 26.3-29.4 39.3-38.1 36.3-91.7 54-157.1 51.8-39-1.3-73.3-6.8-101.3-16.1-11.4-3.9-34.7-15.7-42.7-21.7-18.2-13.6-30.2-29.9-37-50.2-3.9-11.5-6.5-29.3-6.5-43.6.1-26.8 6.4-44.4 21.5-59.6 19.1-19.3 45-29.4 75.6-29.4h9.6l-.4-5.3c-2.2-27.8-15-53.1-39.8-78.2-15.6-15.9-30.4-26.1-48.9-34-8.4-3.6-8-1.4-4.7-25.5 2-15.6 3.3-32.2 4.7-61.3.3-7 .8-12.7 1-12.7.3 0 6.7 3.8 14.2 8.3z"/></svg>